<?xml version="1.0" encoding="utf-8"?>
<!-- Generator: Adobe Illustrator 15.1.0, SVG Export Plug-In . SVG Version: 6.00 Build 0)  -->
<!DOCTYPE svg PUBLIC "-//W3C//DTD SVG 1.1//EN" "http://www.w3.org/Graphics/SVG/1.1/DTD/svg11.dtd">
<svg version="1.1" id="Layer_1" xmlns="http://www.w3.org/2000/svg" xmlns:xlink="http://www.w3.org/1999/xlink" x="0px" y="0px"
	 width="228px" height="26px" viewBox="0 0 228 26" enable-background="new 0 0 228 26" xml:space="preserve">
<path opacity="0.5" fill="#FFFFFF" stroke="#000000" stroke-width="2" stroke-linecap="round" stroke-miterlimit="10" d="
	M227,13.923C227,23.137,225.595,25,214.92,25H13.08C2.793,25,1,23.462,1,13.923v-1.846C1,2.615,2.143,1,13.08,1h201.84
	C225.758,1,227,2.615,227,12.077V13.923z"/>
<g>
	<circle fill="#FFFFFF" stroke="#000000" stroke-width="2" stroke-miterlimit="10" cx="216.25" cy="11.688" r="6.25"/>
	
		<line fill="none" stroke="#000000" stroke-width="2" stroke-linecap="round" stroke-miterlimit="10" x1="211.15" y1="15.293" x2="203.375" y2="20.562"/>
</g>
<path fill="none" stroke="#000000" stroke-width="2" stroke-linecap="round" stroke-miterlimit="10" d="M227,13.923
	C227,23.137,225.595,25,214.92,25H13.08C2.793,25,1,23.462,1,13.923v-1.846C1,2.615,2.143,1,13.08,1h201.84
	C225.758,1,227,2.615,227,12.077V13.923z"/>
</svg>
